<svg width="460" height="460" viewBox="0 0 460 460" fill="none" xmlns="http://www.w3.org/2000/svg">
<g clip-path="url(#clip0_1499_369)">
<path d="M420 270C420 308.6 388.6 340 350 340C311.4 340 280 308.6 280 270C280 259.5 282.3 249.3 286.8 240H240V305.3C240 309.2 237.7 312.8 234.1 314.4C230.5 316 226.3 315.4 223.3 312.7C214.1 304.5 202.3 300 190 300C162.4 300 140 322.4 140 350C140 377.6 162.4 400 190 400C202.3 400 214.2 395.5 223.3 387.3C226.2 384.7 230.5 384 234.1 385.6C237.7 387.2 240 390.8 240 394.7V460H460V240H413.2C417.7 249.3 420 259.5 420 270Z" fill="white"/>
<path d="M40 190C40 151.4 71.4 120 110 120C148.6 120 180 151.4 180 190C180 200.5 177.7 210.7 173.2 220H220V154.7C220 150.8 222.3 147.2 225.9 145.6C229.5 144 233.7 144.6 236.7 147.3C245.9 155.5 257.7 160 270 160C297.6 160 320 137.6 320 110C320 82.4 297.6 60 270 60C257.7 60 245.8 64.5 236.7 72.7C233.8 75.3 229.6 76 225.9 74.4C222.3 72.8 220 69.2 220 65.3V0H0V220H46.8C42.3 210.7 40 200.5 40 190Z" fill="white"/>
<path d="M120 350C120 311.4 151.4 280 190 280C200.5 280 210.7 282.3 220 286.8V240H154.7C150.8 240 147.2 237.7 145.6 234.1C144 230.5 144.6 226.3 147.3 223.3C155.5 214.1 160 202.3 160 190C160 162.4 137.6 140 110 140C82.4 140 60 162.4 60 190C60 190.8 60 191.5 60.1 192.3C60.1 192.6 60.1 192.8 60.2 193.1C60.2 193.6 60.3 194.1 60.3 194.6C60.3 194.9 60.4 195.2 60.4 195.5C60.5 196 60.5 196.4 60.6 196.9C60.6 197.2 60.7 197.5 60.7 197.8C60.8 198.2 60.8 198.7 60.9 199.1C61 199.4 61 199.7 61.1 200C61.2 200.4 61.3 200.9 61.4 201.3C61.5 201.6 61.6 201.9 61.6 202.2C61.7 202.6 61.8 203 61.9 203.4C62 203.7 62.1 204 62.2 204.3C62.3 204.7 62.4 205.1 62.6 205.5C62.7 205.8 62.8 206.1 62.9 206.4C63 206.8 63.2 207.2 63.3 207.6C63.4 207.9 63.6 208.2 63.7 208.5C63.9 208.9 64 209.3 64.2 209.6C64.3 209.9 64.5 210.2 64.6 210.5C64.8 210.9 64.9 211.2 65.1 211.6C65.3 211.9 65.4 212.2 65.6 212.5C65.8 212.9 66 213.2 66.2 213.6C66.4 213.9 66.5 214.2 66.7 214.5C66.9 214.9 67.1 215.2 67.3 215.6C67.5 215.9 67.7 216.2 67.9 216.5C68.1 216.8 68.3 217.2 68.6 217.5C68.8 217.8 69 218.1 69.2 218.4C69.4 218.7 69.7 219.1 69.9 219.4C70.1 219.7 70.3 220 70.6 220.3C70.8 220.6 71.1 220.9 71.3 221.2C71.5 221.5 71.8 221.8 72 222.1C72.3 222.4 72.5 222.7 72.8 223.1C74.4 224.9 75.5 227.3 75.5 229.9C75.5 234.9 71.8 239 67.1 239.8C67 239.8 66.9 239.8 66.9 239.8C66.5 239.9 66 239.9 65.6 239.9H0V459.9H220V413.1C210.7 417.5 200.5 419.9 190 419.9C151.4 420 120 388.6 120 350Z" fill="white"/>
<path d="M240 0V46.8C249.3 42.4 259.5 40 270 40C308.6 40 340 71.4 340 110C340 148.6 308.6 180 270 180C259.5 180 249.3 177.7 240 173.2V220H305.3C309.2 220 312.8 222.3 314.4 225.9C316 229.5 315.4 233.7 312.7 236.7C304.5 245.9 300 257.7 300 270C300 297.6 322.4 320 350 320C377.6 320 400 297.6 400 270C400 257.7 395.5 245.8 387.3 236.7C384.7 233.8 384 229.6 385.6 225.9C387.2 222.2 390.8 220 394.7 220H460V0H240Z" fill="white"/>
</g>
<defs>
<clipPath id="clip0_1499_369">
<rect width="460" height="460" fill="white"/>
</clipPath>
</defs>
</svg>
